<svg id="visual" viewBox="0 0 3840 2160" width="3840" height="2160" xmlns="http://www.w3.org/2000/svg" xmlns:xlink="http://www.w3.org/1999/xlink" version="1.1"><rect x="0" y="0" width="3840" height="2160" fill="#fff"></rect><defs><linearGradient id="grad1_0" x1="43.8%" y1="100%" x2="100%" y2="0%"><stop offset="14.444444444444446%" stop-color="#3c7bfa" stop-opacity="1"></stop><stop offset="85.55555555555554%" stop-color="#3c7bfa" stop-opacity="1"></stop></linearGradient></defs><defs><linearGradient id="grad1_1" x1="43.8%" y1="100%" x2="100%" y2="0%"><stop offset="14.444444444444446%" stop-color="#3c7bfa" stop-opacity="1"></stop><stop offset="85.55555555555554%" stop-color="#b0bafe" stop-opacity="1"></stop></linearGradient></defs><defs><linearGradient id="grad1_2" x1="43.8%" y1="100%" x2="100%" y2="0%"><stop offset="14.444444444444446%" stop-color="#ffffff" stop-opacity="1"></stop><stop offset="85.55555555555554%" stop-color="#b0bafe" stop-opacity="1"></stop></linearGradient></defs><defs><linearGradient id="grad2_0" x1="0%" y1="100%" x2="56.3%" y2="0%"><stop offset="14.444444444444446%" stop-color="#3c7bfa" stop-opacity="1"></stop><stop offset="85.55555555555554%" stop-color="#3c7bfa" stop-opacity="1"></stop></linearGradient></defs><defs><linearGradient id="grad2_1" x1="0%" y1="100%" x2="56.3%" y2="0%"><stop offset="14.444444444444446%" stop-color="#b0bafe" stop-opacity="1"></stop><stop offset="85.55555555555554%" stop-color="#3c7bfa" stop-opacity="1"></stop></linearGradient></defs><defs><linearGradient id="grad2_2" x1="0%" y1="100%" x2="56.3%" y2="0%"><stop offset="14.444444444444446%" stop-color="#b0bafe" stop-opacity="1"></stop><stop offset="85.55555555555554%" stop-color="#ffffff" stop-opacity="1"></stop></linearGradient></defs><g transform="translate(3840, 2160)"><path d="M-540 0C-516.6 -52.9 -493.2 -105.7 -470.8 -153C-448.4 -200.2 -427 -241.8 -405.3 -294.5C-383.6 -347.1 -361.6 -410.8 -317.4 -436.9C-273.2 -462.9 -206.8 -451.3 -150.2 -462.2C-93.6 -473.1 -46.8 -506.6 0 -540L0 0Z" fill="#d9dcff"></path><path d="M-360 0C-344.4 -35.2 -328.8 -70.5 -313.8 -102C-298.9 -133.5 -284.7 -161.2 -270.2 -196.3C-255.8 -231.4 -241.1 -273.9 -211.6 -291.2C-182.1 -308.6 -137.9 -300.9 -100.1 -308.1C-62.4 -315.4 -31.2 -337.7 0 -360L0 0Z" fill="#819afc"></path><path d="M-180 0C-172.2 -17.6 -164.4 -35.2 -156.9 -51C-149.5 -66.7 -142.3 -80.6 -135.1 -98.2C-127.9 -115.7 -120.5 -136.9 -105.8 -145.6C-91.1 -154.3 -68.9 -150.4 -50.1 -154.1C-31.2 -157.7 -15.6 -168.9 0 -180L0 0Z" fill="#3c7bfa"></path></g><g transform="translate(0, 0)"><path d="M540 0C533.2 58.3 526.4 116.6 502.2 163.2C477.9 209.7 436.1 244.4 406.9 295.7C377.8 346.9 361.3 414.7 317.4 436.9C273.5 459 202.1 435.5 144.6 445.1C87.1 454.7 43.6 497.3 0 540L0 0Z" fill="#d9dcff"></path><path d="M360 0C355.5 38.9 351 77.8 334.8 108.8C318.6 139.8 290.7 162.9 271.3 197.1C251.9 231.3 240.9 276.5 211.6 291.2C182.3 306 134.7 290.3 96.4 296.7C58.1 303.1 29 331.6 0 360L0 0Z" fill="#819afc"></path><path d="M180 0C177.7 19.4 175.5 38.9 167.4 54.4C159.3 69.9 145.4 81.5 135.6 98.6C125.9 115.6 120.4 138.2 105.8 145.6C91.2 153 67.4 145.2 48.2 148.4C29 151.6 14.5 165.8 0 180L0 0Z" fill="#3c7bfa"></path></g></svg>